<svg width="72" height="72" viewBox="0 0 72 72" fill="none" xmlns="http://www.w3.org/2000/svg">
  <path
    d="M34.7112 59.9999H31.5211C19.4903 59.9999 13.475 59.9999 9.73748 55.8777C6 51.7555 6 45.1209 6 31.8518V23.2505C6 18.1374 6 15.5809 6.97061 13.6626C7.66249 12.2952 8.6855 11.1669 9.9253 10.4038C11.6646 9.33325 13.9825 9.33325 18.6183 9.33325C21.5883 9.33325 23.0733 9.33325 24.3733 9.8709C27.3413 11.0985 28.5652 14.0722 29.9045 17.0265L31.5211 20.5925M21.0124 20.5925H46.6461C52.0226 20.5925 54.7108 20.5925 56.6419 22.0157C57.4779 22.6318 58.1957 23.4234 58.7543 24.3455C59.6242 25.7814 59.9076 27.5968 60 30.4444"
    stroke="white" stroke-width="1.5" stroke-linecap="round" />
  <path
    d="M13.7868 37.5345C15.0808 34.4701 15.7278 32.9379 16.9904 31.9757C19.0286 30.4226 21.9589 30.6829 24.4701 30.6829H51.7571C59.1876 30.6829 62.9029 30.6829 64.7568 32.8081C67.9392 36.4561 64.1847 42.3737 62.6724 45.9552C59.9612 52.3758 58.6056 55.5862 55.9055 57.5442C51.7915 60.5277 45.807 59.9559 40.8418 59.9559H29.8117C19.1826 59.9559 13.8681 59.9559 11.1043 57.0308C6.00224 51.631 11.4922 42.9687 13.7868 37.5345Z"
    stroke="white" stroke-width="1.5" stroke-linecap="round" />
</svg>