<?xml version="1.0" encoding="UTF-8" standalone="no"?>
<!-- Created with Inkscape (http://www.inkscape.org/) -->

<svg
   version="1.1"
   id="svg9"
   width="880"
   height="880"
   viewBox="0 0 880 880"
   sodipodi:docname="basket-of-mushrooms-vector-pdv.svg"
   inkscape:version="1.2 (dc2aedaf03, 2022-05-15)"
   xmlns:inkscape="http://www.inkscape.org/namespaces/inkscape"
   xmlns:sodipodi="http://sodipodi.sourceforge.net/DTD/sodipodi-0.dtd"
   xmlns="http://www.w3.org/2000/svg"
   xmlns:svg="http://www.w3.org/2000/svg">
  <defs
     id="defs13">
    <clipPath
       clipPathUnits="userSpaceOnUse"
       id="clipPath25">
      <path
         d="M 0,660 H 660 V 0 H 0 Z"
         id="path23" />
    </clipPath>
  </defs>
  <sodipodi:namedview
     id="namedview11"
     pagecolor="#ffffff"
     bordercolor="#000000"
     borderopacity="0.25"
     inkscape:showpageshadow="2"
     inkscape:pageopacity="0.0"
     inkscape:pagecheckerboard="0"
     inkscape:deskcolor="#d1d1d1"
     showgrid="false"
     inkscape:zoom="0.925"
     inkscape:cx="439.45946"
     inkscape:cy="440"
     inkscape:window-width="1920"
     inkscape:window-height="1017"
     inkscape:window-x="-8"
     inkscape:window-y="-8"
     inkscape:window-maximized="1"
     inkscape:current-layer="g17">
    <inkscape:page
       x="0"
       y="0"
       id="page15"
       width="880"
       height="880" />
  </sodipodi:namedview>
  <g
     id="g17"
     inkscape:groupmode="layer"
     inkscape:label="Page 1"
     transform="matrix(1.3333333,0,0,-1.3333333,0,880)">
    <g
       id="g19">
      <g
         id="g21"
         clip-path="url(#clipPath25)">
        <g
           id="g27"
           transform="translate(374.6201,102.5947)">
          <path
             d="m 0,0 c 95.267,0 172.967,43.845 172.967,97.603 0,53.757 -77.7,97.603 -172.967,97.603 -95.266,0 -172.968,-43.846 -172.968,-97.603 C -172.968,43.845 -95.266,0 0,0"
             style="fill:#e6e6e6;fill-opacity:1;fill-rule:evenodd;stroke:none"
             id="path29" />
        </g>
        <g
           id="g31"
           transform="translate(332.9004,105.6348)">
          <path
             d="m 0,0 c -65.016,0 -90.732,17.977 -124.648,64.248 -32.385,44.179 -52.691,111.811 -66.265,192.513 127.2,-0.326 254.4,-0.649 381.6,-0.975 C 183.655,170.923 161.453,111.781 129.072,69.904 92.092,22.082 72.548,0 0,0"
             style="fill:#ba732b;fill-opacity:1;fill-rule:evenodd;stroke:none"
             id="path33" />
        </g>
        <g
           id="g35"
           transform="translate(167.2158,301.0342)">
          <path
             d="m 0,0 c 10.867,-44.602 26.768,-90.396 51.189,-123.709 11.259,-15.359 21.356,-27.066 31.994,-35.847 C 77.829,-121.451 72.48,-83.349 67.132,-45.247 39.619,-33.831 17.78,-18.363 0,0"
             style="fill:#d1873d;fill-opacity:1;fill-rule:evenodd;stroke:none"
             id="path37" />
        </g>
        <g
           id="g39"
           transform="translate(332.9004,105.6348)">
          <path
             d="m 0,0 c -30.751,0 -52.709,4.024 -70.903,13.161 l -7.69,4.3 -0.073,0.044 C -21.126,0.748 47.82,16.884 76.102,39.623 c 40.8,32.799 64.385,77.237 73.511,131.902 -117.878,-45.119 -210.324,-27.574 -289.266,23.243 l 43.242,61.751 287.098,-0.733 C 183.655,170.923 161.453,111.781 129.072,69.904 92.092,22.082 72.548,0 0,0"
             style="fill:#9e5811;fill-opacity:1;fill-rule:evenodd;stroke:none"
             id="path41" />
        </g>
        <g
           id="g43"
           transform="translate(332.9023,265.7949)">
          <path
             d="m 0,0 c 106.041,0 192.529,49.886 192.529,111.051 0,61.165 -86.488,111.052 -192.529,111.052 -106.042,0 -192.529,-49.887 -192.529,-111.052 C -192.529,49.886 -106.042,0 0,0"
             style="fill:#e6a059;fill-opacity:1;fill-rule:evenodd;stroke:none"
             id="path45" />
        </g>
        <g
           id="g47"
           transform="translate(332.9023,280.915)">
          <path
             d="m 0,0 c 91.602,0 166.315,43.093 166.315,95.931 0,52.838 -74.713,95.93 -166.315,95.93 -91.603,0 -166.317,-43.092 -166.317,-95.93 C -166.317,43.093 -91.603,0 0,0"
             style="fill:#ba732b;fill-opacity:1;fill-rule:evenodd;stroke:none"
             id="path49" />
        </g>
        <g
           id="g51"
           transform="translate(207.0557,373.2227)">
          <path
             d="m 0,0 c -11.76,17.794 -18.436,39.013 9.734,41.747 36.44,1.691 68.614,-37.109 85.557,-65.065 17.4,-28.714 18.139,-53.001 9.608,-68.236 -30.863,2.237 -59.095,9.355 -82.298,19.966 -3.663,12.297 -3.063,28.199 -7.367,40.537 C 11.498,-20.332 6.169,-9.751 0,0"
             style="fill:#e0d4c9;fill-opacity:1;fill-rule:evenodd;stroke:none"
             id="path53" />
        </g>
        <g
           id="g55"
           transform="translate(207.0557,373.2227)">
          <path
             d="M 0,0 C -11.76,17.794 -18.436,39.013 9.734,41.747 40.03,43.152 67.378,16.57 85.475,-8.502 81.074,-12.618 76.227,-16.518 70.952,-20.123 53.96,-31.742 35.246,-38.497 17.604,-40.409 c -0.594,3.258 -1.342,6.411 -2.37,9.358 C 11.498,-20.332 6.169,-9.751 0,0"
             style="fill:#c9b9ab;fill-opacity:1;fill-rule:evenodd;stroke:none"
             id="path57" />
        </g>
        <g
           id="g59"
           transform="translate(275.502,447.9912)">
          <path
             d="m 0,0 c 21.886,-28.205 6.471,-73.745 -34.435,-101.715 -40.903,-27.972 -91.804,-27.782 -113.69,0.425 -27.537,35.486 -16.7,86.93 24.203,114.901 C -83.017,41.58 -27.537,35.487 0,0"
             style="fill:#825324;fill-opacity:1;fill-rule:evenodd;stroke:none"
             id="path61" />
        </g>
        <g
           id="g63"
           transform="translate(275.502,447.9912)">
          <path
             d="m 0,0 c 21.886,-28.205 6.471,-73.745 -34.435,-101.715 -13.949,-9.539 -29.062,-15.802 -43.793,-18.796 48.672,23.476 99.817,96.418 39.102,136.738 -13.205,8.771 -27.43,14.059 -43.275,13.797 C -50.936,34.855 -18.891,24.346 0,0"
             style="fill:#663d13;fill-opacity:1;fill-rule:evenodd;stroke:none"
             id="path65" />
        </g>
        <g
           id="g67"
           transform="translate(161.1357,454.1895)">
          <path
             d="M 0,0 C 14.884,-0.26 22.041,-15.391 15.982,-33.799 9.921,-52.208 -7.057,-66.92 -21.945,-66.663 c -14.882,0.258 -22.041,15.39 -15.981,33.799 C -31.865,-14.456 -14.885,0.257 0,0"
             style="fill:#99642f;fill-opacity:1;fill-rule:evenodd;stroke:none"
             id="path69" />
        </g>
        <g
           id="g71"
           transform="translate(336.3008,389.2373)">
          <path
             d="m 0,0 c 1.868,23.38 10.811,46.712 38.48,31.754 34.485,-21.02 36.375,-76.036 32.038,-111.819 -0.845,-6.958 -2.13,-13.395 -3.771,-19.329 -21.315,-5.729 -45.08,-8.928 -70.147,-8.928 -9.366,0 -18.549,0.446 -27.49,1.304 -0.932,4.477 -1.58,9.287 -1.906,14.431 -1.092,17.354 18.194,36.387 24.702,55.062 C -3.913,-25.511 -1.279,-12.641 0,0"
             style="fill:#ccb6a1;fill-opacity:1;fill-rule:evenodd;stroke:none"
             id="path73" />
        </g>
        <g
           id="g75"
           transform="translate(336.3008,389.2373)">
          <path
             d="m 0,0 c 1.868,23.38 10.811,46.712 38.48,31.754 28.673,-17.476 34.81,-58.451 33.574,-92.334 -6.94,-1.004 -14.131,-1.53 -21.507,-1.53 -23.754,0 -45.639,5.465 -63.11,14.653 1.766,3.315 3.317,6.63 4.469,9.932 C -3.913,-25.511 -1.279,-12.641 0,0"
             style="fill:#b8a290;fill-opacity:1;fill-rule:evenodd;stroke:none"
             id="path77" />
        </g>
        <g
           id="g79"
           transform="translate(451.8213,414.543)">
          <path
             d="m 0,0 c 0,-39.066 -46.364,-70.734 -103.554,-70.734 -57.193,0 -103.554,31.668 -103.554,70.734 0,49.148 46.361,88.992 103.554,88.992 C -46.364,88.992 0,49.148 0,0"
             style="fill:#996633;fill-opacity:1;fill-rule:evenodd;stroke:none"
             id="path81" />
        </g>
        <g
           id="g83"
           transform="translate(451.8213,414.543)">
          <path
             d="m 0,0 c 0,-39.066 -46.364,-70.734 -103.554,-70.734 -19.506,0 -37.748,3.686 -53.324,10.09 C -95.78,-69.518 2.645,-35.162 -24.239,38.893 -30.085,55.001 -39.331,68.588 -53.99,78.155 -21.824,63.056 0,33.718 0,0"
             style="fill:#825324;fill-opacity:1;fill-rule:evenodd;stroke:none"
             id="path85" />
        </g>
        <g
           id="g87"
           transform="translate(303.7021,485.5332)">
          <path
             d="m 0,0 c 17.186,0 24.7,-16.449 16.791,-36.74 -7.911,-20.291 -28.253,-36.741 -45.433,-36.741 -17.186,0 -24.703,16.45 -16.792,36.741 C -37.522,-16.449 -17.183,0 0,0"
             style="fill:#b37c45;fill-opacity:1;fill-rule:evenodd;stroke:none"
             id="path89" />
        </g>
        <g
           id="g91"
           transform="translate(441.8438,389.0176)">
          <path
             d="M 0,0 C 5.364,16.831 15.736,31.78 32.751,13.478 47.088,-3.46 47.649,-28.328 43.581,-50.457 27.893,-71.226 -0.167,-88.165 -35.23,-98.183 c -4.728,9.668 -6.649,22.622 -4.019,38.153 2.228,13.14 19.187,22.208 27.022,34.344 C -7.186,-17.878 -3.093,-9.032 0,0"
             style="fill:#e0d4c9;fill-opacity:1;fill-rule:evenodd;stroke:none"
             id="path93" />
        </g>
        <g
           id="g95"
           transform="translate(441.8438,389.0176)">
          <path
             d="m 0,0 c 5.364,16.831 15.736,31.78 32.751,13.478 14.337,-16.938 14.898,-41.808 10.83,-63.935 -2.99,-3.957 -6.427,-7.773 -10.277,-11.43 -2.731,0.773 -5.482,1.667 -8.243,2.685 -16.827,6.197 -31.383,15.96 -42.169,27.324 1.825,1.995 3.496,4.047 4.881,6.192 C -7.186,-17.878 -3.093,-9.032 0,0"
             style="fill:#c9b9ab;fill-opacity:1;fill-rule:evenodd;stroke:none"
             id="path97" />
        </g>
        <g
           id="g99"
           transform="translate(528.0518,377.6172)">
          <path
             d="m 0,0 c -6.757,-28.939 -45.078,-40.299 -85.589,-25.374 -40.514,14.923 -67.877,50.48 -61.121,79.42 8.502,36.407 48.239,53.825 88.752,38.9 C -17.446,78.022 8.502,36.409 0,0"
             style="fill:#663d13;fill-opacity:1;fill-rule:evenodd;stroke:none"
             id="path101" />
        </g>
        <g
           id="g103"
           transform="translate(528.0518,377.6172)">
          <path
             d="m 0,0 c -6.757,-28.939 -45.078,-40.299 -85.589,-25.374 -13.819,5.089 -26.103,12.579 -36.029,21.39 41.744,-22.517 117.409,-22.752 111.178,39.121 -1.356,13.459 -5.555,25.934 -14.286,36.848 C -4.551,52.404 5.833,24.977 0,0"
             style="fill:#57310b;fill-opacity:1;fill-rule:evenodd;stroke:none"
             id="path105" />
        </g>
        <g
           id="g107"
           transform="translate(435.4102,468.8574)">
          <path
             d="m 0,0 c 12.172,-4.485 14.651,-18.631 5.538,-31.598 -9.115,-12.968 -26.368,-19.843 -38.54,-15.361 -12.174,4.485 -14.651,18.631 -5.538,31.598 C -29.427,-2.393 -12.171,4.484 0,0"
             style="fill:#7d4d1d;fill-opacity:1;fill-rule:evenodd;stroke:none"
             id="path109" />
        </g>
        <g
           id="g111"
           transform="translate(264.1104,257.915)">
          <path
             d="m 0,0 c 0.312,-8.806 -6.578,-16.2 -15.386,-16.512 -8.807,-0.309 -16.199,6.579 -16.51,15.388 -6.498,178.936 17.932,287.411 49.342,335.864 12.296,18.969 26.288,30.06 40.754,33.736 16.267,4.132 31.921,-0.699 45.718,-13.909 21.375,-20.469 38.462,-64.322 43.899,-127.752 -9.935,6.667 -21.323,11.8 -33.684,15.009 -5.763,45.34 -17.851,75.838 -32.355,89.73 -5.346,5.116 -10.726,7.165 -15.697,5.9 -6.768,-1.719 -14.215,-8.3 -21.868,-20.1 C 15.763,273.467 -6.233,171.635 0,0"
             style="fill:#e3a05d;fill-opacity:1;fill-rule:evenodd;stroke:none"
             id="path113" />
        </g>
      </g>
    </g>
  </g>
</svg>
