<svg width="16" height="18" viewBox="0 0 16 18" fill="none" xmlns="http://www.w3.org/2000/svg">
  <path
    d="M8 1.14282C6.41775 1.14282 4.87103 1.61201 3.55544 2.49107C2.23985 3.37012 1.21447 4.61955 0.608967 6.08136C0.00346625 7.54316 -0.15496 9.1517 0.153721 10.7035C0.462403 12.2554 1.22433 13.6809 2.34315 14.7997C3.46197 15.9185 4.88743 16.6804 6.43928 16.9891C7.99113 17.2978 9.59966 17.1394 11.0615 16.5339C12.5233 15.9284 13.7727 14.903 14.6518 13.5874C15.5308 12.2718 16 10.7251 16 9.14282C15.9977 7.02181 15.1541 4.98834 13.6543 3.48855C12.1545 1.98877 10.121 1.14516 8 1.14282ZM7.1579 3.66914C7.1579 3.4458 7.24662 3.23161 7.40454 3.07368C7.56247 2.91575 7.77666 2.82703 8 2.82703C8.22334 2.82703 8.43754 2.91575 8.59546 3.07368C8.75339 3.23161 8.84211 3.4458 8.84211 3.66914V8.72177C8.84211 8.94511 8.75339 9.1593 8.59546 9.31723C8.43754 9.47515 8.22334 9.56388 8 9.56388C7.77666 9.56388 7.56247 9.47515 7.40454 9.31723C7.24662 9.1593 7.1579 8.94511 7.1579 8.72177V3.66914ZM11.8737 13.0165C10.8471 14.0431 9.45473 14.6199 8.00289 14.62C6.55104 14.62 5.15864 14.0433 4.132 13.0167C3.10536 11.9901 2.52858 10.5978 2.52854 9.14592C2.5285 7.69407 3.10521 6.30167 4.13179 5.27503C4.29062 5.12164 4.50333 5.03676 4.72413 5.03868C4.94493 5.04059 5.15614 5.12916 5.31227 5.28529C5.4684 5.44142 5.55697 5.65264 5.55889 5.87343C5.5608 6.09423 5.47593 6.30695 5.32253 6.46577C4.79263 6.99576 4.43178 7.67099 4.28561 8.40605C4.13945 9.14112 4.21453 9.90302 4.50136 10.5954C4.7882 11.2878 5.2739 11.8796 5.89707 12.296C6.52023 12.7123 7.25286 12.9346 8.00232 12.9346C8.75178 12.9346 9.48441 12.7123 10.1076 12.296C10.7307 11.8796 11.2164 11.2878 11.5033 10.5954C11.7901 9.90302 11.8652 9.14112 11.719 8.40605C11.5729 7.67099 11.212 6.99576 10.6821 6.46577C10.5242 6.30776 10.4355 6.09349 10.4356 5.8701C10.4357 5.64672 10.5245 5.43251 10.6825 5.27461C10.8405 5.11671 11.0548 5.02805 11.2782 5.02813C11.5016 5.0282 11.7158 5.11702 11.8737 5.27503C12.8988 6.30232 13.4745 7.6943 13.4745 9.14556C13.4745 10.5968 12.8988 11.9888 11.8737 13.0161V13.0165Z"
    fill="white" />
</svg>