<svg width="72" height="72" viewBox="0 0 72 72" fill="none" xmlns="http://www.w3.org/2000/svg">
  <path
    d="M43.2379 9.11798C39.8259 5.70599 38.1199 4 36 4C33.8801 4 32.1741 5.70599 28.7621 9.11798C26.7146 11.1655 24.6857 12.116 21.7667 12.116C19.2179 12.116 15.5918 11.6217 13.6 13.6302C11.624 15.6229 12.1161 19.2341 12.1161 21.7666C12.1161 24.6857 11.1654 26.7146 9.11793 28.7621C5.706 32.1741 4.00003 33.88 4 35.9999C4.00005 38.1198 5.70604 39.826 9.11801 43.2379C11.4117 45.5315 12.1161 47.0125 12.1161 50.2333C12.1161 52.7821 11.6218 56.4082 13.6304 58.4C15.623 60.3759 19.2342 59.8838 21.7666 59.8838C24.8752 59.8838 26.3721 60.4919 28.5906 62.7105C30.4798 64.5996 33.0122 68 36.0001 68C38.9879 68 41.5203 64.5996 43.4094 62.7105C45.6279 60.4919 47.1248 59.8838 50.2334 59.8838C52.7658 59.8838 56.377 60.3759 58.3696 58.4M62.8821 28.7621C66.294 32.1741 68 33.88 68 35.9999C67.9999 38.1198 66.294 39.826 62.882 43.2379C60.5883 45.5314 59.8839 47.0126 59.8839 50.2333C59.8839 52.7821 60.3782 56.4082 58.3696 58.4M58.3696 58.4H58.4"
    stroke="white" stroke-width="1.5" stroke-linecap="round" stroke-linejoin="round" />
  <path d="M23 30.3077C23 30.3077 30.2321 29.3333 35.8571 42C35.8571 42 52.1176 10.3333 68 4" stroke="white"
    stroke-width="1.5" stroke-linecap="round" stroke-linejoin="round" />
</svg>